<mxfile host="app.diagrams.net" modified="2024-07-16T18:52:48.117Z" agent="Mozilla/5.0 (Macintosh; Intel Mac OS X 10_15_7) AppleWebKit/537.36 (KHTML, like Gecko) Chrome/126.0.0.0 Safari/537.36" etag="Cy0j7kaV6RXN538YrwLS" version="24.6.5" type="github">
  <diagram id="prtHgNgQTEPvFCAcTncT" name="Page-1">
    <mxGraphModel dx="1735" dy="1225" grid="1" gridSize="10" guides="1" tooltips="1" connect="1" arrows="1" fold="1" page="1" pageScale="1" pageWidth="827" pageHeight="1169" math="0" shadow="0">
      <root>
        <mxCell id="0" />
        <mxCell id="1" parent="0" />
        <mxCell id="rH-XyTWtAwkpwKr8b9kJ-61" value="Boomi Integrate" style="swimlane;whiteSpace=wrap;html=1;" vertex="1" parent="1">
          <mxGeometry x="735" y="940" width="225" height="250" as="geometry">
            <mxRectangle x="515" y="780" width="130" height="30" as="alternateBounds" />
          </mxGeometry>
        </mxCell>
        <mxCell id="rH-XyTWtAwkpwKr8b9kJ-49" value="Flow Services Server" style="rounded=0;whiteSpace=wrap;html=1;horizontal=0;" vertex="1" parent="rH-XyTWtAwkpwKr8b9kJ-61">
          <mxGeometry x="-17" y="50" width="47" height="160" as="geometry" />
        </mxCell>
        <mxCell id="rH-XyTWtAwkpwKr8b9kJ-77" value="CRUD Integrations" style="swimlane;whiteSpace=wrap;html=1;" vertex="1" parent="rH-XyTWtAwkpwKr8b9kJ-61">
          <mxGeometry x="25" y="35" width="185" height="195" as="geometry">
            <mxRectangle x="190" y="35" width="140" height="30" as="alternateBounds" />
          </mxGeometry>
        </mxCell>
        <mxCell id="rH-XyTWtAwkpwKr8b9kJ-60" value="GET" style="rounded=0;whiteSpace=wrap;html=1;" vertex="1" parent="rH-XyTWtAwkpwKr8b9kJ-77">
          <mxGeometry x="30" y="36.5" width="118" height="37.5" as="geometry" />
        </mxCell>
        <mxCell id="rH-XyTWtAwkpwKr8b9kJ-78" value="SAVE" style="rounded=0;whiteSpace=wrap;html=1;" vertex="1" parent="rH-XyTWtAwkpwKr8b9kJ-77">
          <mxGeometry x="30" y="86.5" width="118" height="37.5" as="geometry" />
        </mxCell>
        <mxCell id="rH-XyTWtAwkpwKr8b9kJ-82" value="DELETE" style="rounded=0;whiteSpace=wrap;html=1;" vertex="1" parent="rH-XyTWtAwkpwKr8b9kJ-77">
          <mxGeometry x="30" y="136.5" width="118" height="37.5" as="geometry" />
        </mxCell>
        <mxCell id="rH-XyTWtAwkpwKr8b9kJ-72" value="" style="shape=flexArrow;endArrow=classic;startArrow=classic;html=1;rounded=0;exitX=1;exitY=0.5;exitDx=0;exitDy=0;entryX=-0.015;entryY=0.574;entryDx=0;entryDy=0;entryPerimeter=0;fillColor=default;" edge="1" parent="rH-XyTWtAwkpwKr8b9kJ-61" target="rH-XyTWtAwkpwKr8b9kJ-48">
          <mxGeometry width="100" height="100" relative="1" as="geometry">
            <mxPoint x="210" y="129.47000000000003" as="sourcePoint" />
            <mxPoint x="264" y="129.47000000000003" as="targetPoint" />
          </mxGeometry>
        </mxCell>
        <mxCell id="PWQ_n-_kXRo58elghRLx-7" value="Pattern" style="swimlane;whiteSpace=wrap;html=1;fillColor=#1ba1e2;strokeColor=#006EAF;fontColor=#ffffff;" parent="1" vertex="1">
          <mxGeometry x="560" y="130" width="400" height="600" as="geometry">
            <mxRectangle x="60" y="190" width="140" height="30" as="alternateBounds" />
          </mxGeometry>
        </mxCell>
        <mxCell id="PWQ_n-_kXRo58elghRLx-9" value="Topics" style="swimlane;whiteSpace=wrap;html=1;fillColor=#dae8fc;strokeColor=#6c8ebf;" parent="PWQ_n-_kXRo58elghRLx-7" vertex="1">
          <mxGeometry x="10" y="30" width="380" height="220" as="geometry" />
        </mxCell>
        <mxCell id="rH-XyTWtAwkpwKr8b9kJ-16" value="Topic 1" style="swimlane;whiteSpace=wrap;html=1;fillColor=#dae8fc;strokeColor=#6c8ebf;fillStyle=solid;" vertex="1" parent="PWQ_n-_kXRo58elghRLx-9">
          <mxGeometry x="10" y="30" width="360" height="100" as="geometry" />
        </mxCell>
        <mxCell id="rH-XyTWtAwkpwKr8b9kJ-29" value="Content [text]" style="rounded=0;whiteSpace=wrap;html=1;align=left;" vertex="1" parent="rH-XyTWtAwkpwKr8b9kJ-16">
          <mxGeometry x="10" y="30" width="340" height="30" as="geometry" />
        </mxCell>
        <mxCell id="rH-XyTWtAwkpwKr8b9kJ-33" value="Content [dynamic table]" style="rounded=0;whiteSpace=wrap;html=1;align=left;" vertex="1" parent="rH-XyTWtAwkpwKr8b9kJ-16">
          <mxGeometry x="10" y="60" width="340" height="30" as="geometry" />
        </mxCell>
        <mxCell id="rH-XyTWtAwkpwKr8b9kJ-30" value="Topic 2" style="swimlane;whiteSpace=wrap;html=1;fillColor=#dae8fc;strokeColor=#6c8ebf;" vertex="1" parent="PWQ_n-_kXRo58elghRLx-9">
          <mxGeometry x="10" y="140" width="360" height="70" as="geometry" />
        </mxCell>
        <mxCell id="PWQ_n-_kXRo58elghRLx-11" value="Configuration" style="swimlane;whiteSpace=wrap;html=1;fillColor=#dae8fc;strokeColor=#6c8ebf;" parent="PWQ_n-_kXRo58elghRLx-7" vertex="1">
          <mxGeometry x="10" y="260" width="380" height="330" as="geometry">
            <mxRectangle x="10" y="220" width="110" height="30" as="alternateBounds" />
          </mxGeometry>
        </mxCell>
        <mxCell id="PWQ_n-_kXRo58elghRLx-15" value="TOC Options" style="rounded=0;whiteSpace=wrap;html=1;fillColor=#f5f5f5;fontColor=#333333;strokeColor=#666666;" parent="PWQ_n-_kXRo58elghRLx-11" vertex="1">
          <mxGeometry x="10" y="130" width="360" height="40" as="geometry" />
        </mxCell>
        <mxCell id="PWQ_n-_kXRo58elghRLx-16" value="Global Variables" style="rounded=0;whiteSpace=wrap;html=1;fillColor=#f5f5f5;fontColor=#333333;strokeColor=#666666;" parent="PWQ_n-_kXRo58elghRLx-11" vertex="1">
          <mxGeometry x="10" y="80" width="360" height="40" as="geometry" />
        </mxCell>
        <mxCell id="PWQ_n-_kXRo58elghRLx-17" value="Designers" style="rounded=0;whiteSpace=wrap;html=1;fillColor=#f5f5f5;fontColor=#333333;strokeColor=#666666;" parent="PWQ_n-_kXRo58elghRLx-11" vertex="1">
          <mxGeometry x="10" y="230" width="360" height="40" as="geometry" />
        </mxCell>
        <mxCell id="PWQ_n-_kXRo58elghRLx-18" value="Reviewer&#39;s Block" style="rounded=0;whiteSpace=wrap;html=1;fillColor=#f5f5f5;fontColor=#333333;strokeColor=#666666;" parent="PWQ_n-_kXRo58elghRLx-11" vertex="1">
          <mxGeometry x="10" y="280" width="360" height="40" as="geometry" />
        </mxCell>
        <mxCell id="PWQ_n-_kXRo58elghRLx-23" value="GDMS Properties" style="rounded=0;whiteSpace=wrap;html=1;fillColor=#f5f5f5;fontColor=#333333;strokeColor=#666666;" parent="PWQ_n-_kXRo58elghRLx-11" vertex="1">
          <mxGeometry x="10" y="30" width="360" height="40" as="geometry" />
        </mxCell>
        <mxCell id="PWQ_n-_kXRo58elghRLx-41" value="Header Options" style="rounded=0;whiteSpace=wrap;html=1;fillColor=#f5f5f5;fontColor=#333333;strokeColor=#666666;" parent="PWQ_n-_kXRo58elghRLx-11" vertex="1">
          <mxGeometry x="10" y="180" width="360" height="40" as="geometry" />
        </mxCell>
        <mxCell id="PWQ_n-_kXRo58elghRLx-24" value="Report" style="swimlane;whiteSpace=wrap;html=1;fillColor=#f0a30a;strokeColor=#BD7000;fontColor=#000000;" parent="1" vertex="1">
          <mxGeometry x="1090" y="130" width="400" height="600" as="geometry">
            <mxRectangle x="60" y="190" width="140" height="30" as="alternateBounds" />
          </mxGeometry>
        </mxCell>
        <mxCell id="PWQ_n-_kXRo58elghRLx-27" value="Configuration" style="swimlane;whiteSpace=wrap;html=1;fillColor=#d5e8d4;strokeColor=#82b366;" parent="PWQ_n-_kXRo58elghRLx-24" vertex="1">
          <mxGeometry x="10" y="260" width="380" height="330" as="geometry">
            <mxRectangle x="10" y="220" width="110" height="30" as="alternateBounds" />
          </mxGeometry>
        </mxCell>
        <mxCell id="PWQ_n-_kXRo58elghRLx-28" value="TOC Options" style="rounded=0;whiteSpace=wrap;html=1;fillColor=#f5f5f5;fontColor=#333333;strokeColor=#666666;" parent="PWQ_n-_kXRo58elghRLx-27" vertex="1">
          <mxGeometry x="10" y="130" width="360" height="40" as="geometry" />
        </mxCell>
        <mxCell id="PWQ_n-_kXRo58elghRLx-29" value="Global Variables" style="rounded=0;whiteSpace=wrap;html=1;fillColor=#f5f5f5;fontColor=#333333;strokeColor=#666666;" parent="PWQ_n-_kXRo58elghRLx-27" vertex="1">
          <mxGeometry x="10" y="80" width="360" height="40" as="geometry" />
        </mxCell>
        <mxCell id="PWQ_n-_kXRo58elghRLx-32" value="GDMS Properties" style="rounded=0;whiteSpace=wrap;html=1;fillColor=#f5f5f5;fontColor=#333333;strokeColor=#666666;" parent="PWQ_n-_kXRo58elghRLx-27" vertex="1">
          <mxGeometry x="10" y="30" width="360" height="40" as="geometry" />
        </mxCell>
        <mxCell id="PWQ_n-_kXRo58elghRLx-42" value="Header Options" style="rounded=0;whiteSpace=wrap;html=1;fillColor=#f5f5f5;fontColor=#333333;strokeColor=#666666;" parent="PWQ_n-_kXRo58elghRLx-27" vertex="1">
          <mxGeometry x="10" y="180" width="360" height="40" as="geometry" />
        </mxCell>
        <mxCell id="PWQ_n-_kXRo58elghRLx-33" style="rounded=0;orthogonalLoop=1;jettySize=auto;html=1;exitX=1;exitY=0.5;exitDx=0;exitDy=0;entryX=0;entryY=0.5;entryDx=0;entryDy=0;shape=flexArrow;fillColor=#dae8fc;strokeColor=#6c8ebf;" parent="1" source="PWQ_n-_kXRo58elghRLx-9" edge="1">
          <mxGeometry relative="1" as="geometry">
            <mxPoint x="1100" y="270" as="targetPoint" />
          </mxGeometry>
        </mxCell>
        <mxCell id="PWQ_n-_kXRo58elghRLx-34" style="rounded=0;orthogonalLoop=1;jettySize=auto;html=1;entryX=0;entryY=0.5;entryDx=0;entryDy=0;shape=flexArrow;fillColor=#f5f5f5;strokeColor=#666666;" parent="1" source="PWQ_n-_kXRo58elghRLx-23" target="PWQ_n-_kXRo58elghRLx-32" edge="1">
          <mxGeometry relative="1" as="geometry" />
        </mxCell>
        <mxCell id="PWQ_n-_kXRo58elghRLx-44" style="edgeStyle=orthogonalEdgeStyle;rounded=0;orthogonalLoop=1;jettySize=auto;html=1;entryX=0;entryY=0.5;entryDx=0;entryDy=0;fillColor=#f5f5f5;strokeColor=#666666;shape=flexArrow;" parent="1" source="PWQ_n-_kXRo58elghRLx-16" target="PWQ_n-_kXRo58elghRLx-29" edge="1">
          <mxGeometry relative="1" as="geometry" />
        </mxCell>
        <mxCell id="PWQ_n-_kXRo58elghRLx-45" style="rounded=0;orthogonalLoop=1;jettySize=auto;html=1;entryX=0;entryY=0.5;entryDx=0;entryDy=0;shape=flexArrow;dashed=1;dashPattern=8 8;fillColor=#f5f5f5;strokeColor=#666666;" parent="1" source="PWQ_n-_kXRo58elghRLx-15" target="PWQ_n-_kXRo58elghRLx-28" edge="1">
          <mxGeometry relative="1" as="geometry" />
        </mxCell>
        <mxCell id="PWQ_n-_kXRo58elghRLx-46" style="rounded=0;orthogonalLoop=1;jettySize=auto;html=1;entryX=0;entryY=0.5;entryDx=0;entryDy=0;shape=flexArrow;dashed=1;dashPattern=8 8;fillColor=#f5f5f5;strokeColor=#666666;" parent="1" source="PWQ_n-_kXRo58elghRLx-41" target="PWQ_n-_kXRo58elghRLx-42" edge="1">
          <mxGeometry relative="1" as="geometry" />
        </mxCell>
        <mxCell id="rH-XyTWtAwkpwKr8b9kJ-35" style="rounded=0;orthogonalLoop=1;jettySize=auto;html=1;entryX=0;entryY=0.5;entryDx=0;entryDy=0;shape=flexArrow;fillColor=#fff2cc;strokeColor=#d6b656;" edge="1" parent="1" source="rH-XyTWtAwkpwKr8b9kJ-1" target="rH-XyTWtAwkpwKr8b9kJ-33">
          <mxGeometry relative="1" as="geometry" />
        </mxCell>
        <mxCell id="rH-XyTWtAwkpwKr8b9kJ-1" value="Table Definition" style="swimlane;whiteSpace=wrap;html=1;fillColor=#fff2cc;strokeColor=#d6b656;" vertex="1" parent="1">
          <mxGeometry x="70" y="190" width="400" height="310" as="geometry">
            <mxRectangle x="60" y="190" width="140" height="30" as="alternateBounds" />
          </mxGeometry>
        </mxCell>
        <mxCell id="rH-XyTWtAwkpwKr8b9kJ-2" value="Sources" style="swimlane;whiteSpace=wrap;html=1;fillColor=#fff2cc;strokeColor=#d6b656;" vertex="1" parent="rH-XyTWtAwkpwKr8b9kJ-1">
          <mxGeometry x="10" y="30" width="380" height="130" as="geometry" />
        </mxCell>
        <mxCell id="rH-XyTWtAwkpwKr8b9kJ-11" value="Source 2" style="rounded=0;whiteSpace=wrap;html=1;fillColor=#f5f5f5;fontColor=#333333;strokeColor=#666666;" vertex="1" parent="rH-XyTWtAwkpwKr8b9kJ-2">
          <mxGeometry x="10" y="80" width="360" height="40" as="geometry" />
        </mxCell>
        <mxCell id="rH-XyTWtAwkpwKr8b9kJ-12" value="Source 1" style="rounded=0;whiteSpace=wrap;html=1;fillColor=#f5f5f5;fontColor=#333333;strokeColor=#666666;" vertex="1" parent="rH-XyTWtAwkpwKr8b9kJ-2">
          <mxGeometry x="10" y="30" width="360" height="40" as="geometry" />
        </mxCell>
        <mxCell id="rH-XyTWtAwkpwKr8b9kJ-4" value="Configuration" style="swimlane;whiteSpace=wrap;html=1;fillColor=#fff2cc;strokeColor=#d6b656;" vertex="1" parent="rH-XyTWtAwkpwKr8b9kJ-1">
          <mxGeometry x="10" y="170" width="380" height="130" as="geometry">
            <mxRectangle x="10" y="220" width="110" height="30" as="alternateBounds" />
          </mxGeometry>
        </mxCell>
        <mxCell id="rH-XyTWtAwkpwKr8b9kJ-6" value="Pivot Config" style="rounded=0;whiteSpace=wrap;html=1;fillColor=#f5f5f5;fontColor=#333333;strokeColor=#666666;" vertex="1" parent="rH-XyTWtAwkpwKr8b9kJ-4">
          <mxGeometry x="10" y="80" width="360" height="40" as="geometry" />
        </mxCell>
        <mxCell id="rH-XyTWtAwkpwKr8b9kJ-9" value="User Inputs" style="rounded=0;whiteSpace=wrap;html=1;fillColor=#f5f5f5;fontColor=#333333;strokeColor=#666666;" vertex="1" parent="rH-XyTWtAwkpwKr8b9kJ-4">
          <mxGeometry x="10" y="30" width="360" height="40" as="geometry" />
        </mxCell>
        <mxCell id="rH-XyTWtAwkpwKr8b9kJ-34" value="Content [figure]" style="rounded=0;whiteSpace=wrap;html=1;align=left;" vertex="1" parent="1">
          <mxGeometry x="590" y="330" width="340" height="30" as="geometry" />
        </mxCell>
        <mxCell id="rH-XyTWtAwkpwKr8b9kJ-36" value="Topics" style="swimlane;whiteSpace=wrap;html=1;fillColor=#dae8fc;strokeColor=#6c8ebf;" vertex="1" parent="1">
          <mxGeometry x="1100" y="160" width="380" height="220" as="geometry" />
        </mxCell>
        <mxCell id="rH-XyTWtAwkpwKr8b9kJ-37" value="Topic 1" style="swimlane;whiteSpace=wrap;html=1;fillColor=#dae8fc;strokeColor=#6c8ebf;fillStyle=solid;" vertex="1" parent="rH-XyTWtAwkpwKr8b9kJ-36">
          <mxGeometry x="10" y="30" width="360" height="100" as="geometry" />
        </mxCell>
        <mxCell id="rH-XyTWtAwkpwKr8b9kJ-38" value="Content [text]" style="rounded=0;whiteSpace=wrap;html=1;align=left;" vertex="1" parent="rH-XyTWtAwkpwKr8b9kJ-37">
          <mxGeometry x="10" y="30" width="340" height="30" as="geometry" />
        </mxCell>
        <mxCell id="rH-XyTWtAwkpwKr8b9kJ-39" value="Content [dynamic table]" style="rounded=0;whiteSpace=wrap;html=1;align=left;" vertex="1" parent="rH-XyTWtAwkpwKr8b9kJ-37">
          <mxGeometry x="10" y="60" width="340" height="30" as="geometry" />
        </mxCell>
        <mxCell id="rH-XyTWtAwkpwKr8b9kJ-40" value="Topic 2" style="swimlane;whiteSpace=wrap;html=1;fillColor=#dae8fc;strokeColor=#6c8ebf;" vertex="1" parent="rH-XyTWtAwkpwKr8b9kJ-36">
          <mxGeometry x="10" y="140" width="360" height="70" as="geometry" />
        </mxCell>
        <mxCell id="rH-XyTWtAwkpwKr8b9kJ-41" value="Content [figure]" style="rounded=0;whiteSpace=wrap;html=1;align=left;" vertex="1" parent="1">
          <mxGeometry x="1120" y="330" width="340" height="30" as="geometry" />
        </mxCell>
        <mxCell id="rH-XyTWtAwkpwKr8b9kJ-46" value="Boomi&amp;nbsp;&lt;span style=&quot;background-color: initial;&quot;&gt;Flow&lt;/span&gt;" style="rounded=1;whiteSpace=wrap;html=1;fontSize=12;" vertex="1" parent="1">
          <mxGeometry x="530" y="1005" width="120" height="180" as="geometry" />
        </mxCell>
        <mxCell id="rH-XyTWtAwkpwKr8b9kJ-48" value="Master Data Hub" style="shape=cylinder3;whiteSpace=wrap;html=1;boundedLbl=1;backgroundOutline=1;size=15;" vertex="1" parent="1">
          <mxGeometry x="1030" y="990" width="90" height="130" as="geometry" />
        </mxCell>
        <mxCell id="rH-XyTWtAwkpwKr8b9kJ-73" value="" style="shape=flexArrow;endArrow=classic;startArrow=classic;html=1;rounded=0;exitX=1;exitY=0.5;exitDx=0;exitDy=0;" edge="1" parent="1">
          <mxGeometry width="100" height="100" relative="1" as="geometry">
            <mxPoint x="646" y="1095" as="sourcePoint" />
            <mxPoint x="720" y="1095" as="targetPoint" />
          </mxGeometry>
        </mxCell>
        <mxCell id="rH-XyTWtAwkpwKr8b9kJ-84" value="Boomi Integrate" style="swimlane;whiteSpace=wrap;html=1;" vertex="1" parent="1">
          <mxGeometry x="665" y="1470" width="395" height="300" as="geometry">
            <mxRectangle x="515" y="780" width="130" height="30" as="alternateBounds" />
          </mxGeometry>
        </mxCell>
        <mxCell id="rH-XyTWtAwkpwKr8b9kJ-85" value="&lt;div&gt;MANAGEMENT integrations&lt;/div&gt;" style="rounded=0;whiteSpace=wrap;html=1;" vertex="1" parent="rH-XyTWtAwkpwKr8b9kJ-84">
          <mxGeometry x="21" y="35" width="110" height="240" as="geometry" />
        </mxCell>
        <mxCell id="rH-XyTWtAwkpwKr8b9kJ-86" value="Flow Services Server" style="rounded=0;whiteSpace=wrap;html=1;horizontal=0;" vertex="1" parent="rH-XyTWtAwkpwKr8b9kJ-84">
          <mxGeometry x="-17" y="50" width="47" height="210" as="geometry" />
        </mxCell>
        <mxCell id="rH-XyTWtAwkpwKr8b9kJ-87" value="CRUD Integrations" style="swimlane;whiteSpace=wrap;html=1;" vertex="1" parent="rH-XyTWtAwkpwKr8b9kJ-84">
          <mxGeometry x="229" y="35" width="155" height="240" as="geometry">
            <mxRectangle x="190" y="35" width="140" height="30" as="alternateBounds" />
          </mxGeometry>
        </mxCell>
        <mxCell id="rH-XyTWtAwkpwKr8b9kJ-88" value="CREATE" style="rounded=0;whiteSpace=wrap;html=1;" vertex="1" parent="rH-XyTWtAwkpwKr8b9kJ-87">
          <mxGeometry x="30" y="36.5" width="118" height="37.5" as="geometry" />
        </mxCell>
        <mxCell id="rH-XyTWtAwkpwKr8b9kJ-90" value="READ" style="rounded=0;whiteSpace=wrap;html=1;" vertex="1" parent="rH-XyTWtAwkpwKr8b9kJ-87">
          <mxGeometry x="30" y="86.5" width="118" height="37.5" as="geometry" />
        </mxCell>
        <mxCell id="rH-XyTWtAwkpwKr8b9kJ-92" value="UPDATE" style="rounded=0;whiteSpace=wrap;html=1;" vertex="1" parent="rH-XyTWtAwkpwKr8b9kJ-87">
          <mxGeometry x="30" y="136.5" width="118" height="37.5" as="geometry" />
        </mxCell>
        <mxCell id="rH-XyTWtAwkpwKr8b9kJ-94" value="DELETE" style="rounded=0;whiteSpace=wrap;html=1;" vertex="1" parent="rH-XyTWtAwkpwKr8b9kJ-87">
          <mxGeometry x="30" y="186.5" width="118" height="37.5" as="geometry" />
        </mxCell>
        <mxCell id="rH-XyTWtAwkpwKr8b9kJ-102" value="Web Services Server" style="rounded=0;whiteSpace=wrap;html=1;horizontal=0;" vertex="1" parent="rH-XyTWtAwkpwKr8b9kJ-87">
          <mxGeometry x="-25" y="15" width="47" height="210" as="geometry" />
        </mxCell>
        <mxCell id="rH-XyTWtAwkpwKr8b9kJ-99" value="" style="shape=flexArrow;endArrow=classic;startArrow=classic;html=1;rounded=0;exitX=1;exitY=0.5;exitDx=0;exitDy=0;fillColor=default;" edge="1" parent="rH-XyTWtAwkpwKr8b9kJ-84" source="rH-XyTWtAwkpwKr8b9kJ-85">
          <mxGeometry width="100" height="100" relative="1" as="geometry">
            <mxPoint x="136" y="156" as="sourcePoint" />
            <mxPoint x="205" y="155" as="targetPoint" />
          </mxGeometry>
        </mxCell>
        <mxCell id="rH-XyTWtAwkpwKr8b9kJ-96" value="Boomi&amp;nbsp;&lt;span style=&quot;background-color: initial;&quot;&gt;Flow&lt;/span&gt;" style="rounded=1;whiteSpace=wrap;html=1;fontSize=12;" vertex="1" parent="1">
          <mxGeometry x="460" y="1535" width="120" height="180" as="geometry" />
        </mxCell>
        <mxCell id="rH-XyTWtAwkpwKr8b9kJ-97" value="SQL Server" style="shape=cylinder3;whiteSpace=wrap;html=1;boundedLbl=1;backgroundOutline=1;size=15;" vertex="1" parent="1">
          <mxGeometry x="1130" y="1555" width="90" height="130" as="geometry" />
        </mxCell>
        <mxCell id="rH-XyTWtAwkpwKr8b9kJ-100" value="" style="shape=flexArrow;endArrow=classic;startArrow=classic;html=1;rounded=0;exitX=1;exitY=0.5;exitDx=0;exitDy=0;fillColor=default;" edge="1" parent="1">
          <mxGeometry width="100" height="100" relative="1" as="geometry">
            <mxPoint x="576" y="1625" as="sourcePoint" />
            <mxPoint x="650" y="1625" as="targetPoint" />
          </mxGeometry>
        </mxCell>
        <mxCell id="rH-XyTWtAwkpwKr8b9kJ-101" value="Flow Services Server" style="rounded=0;whiteSpace=wrap;html=1;horizontal=0;" vertex="1" parent="1">
          <mxGeometry x="648" y="1520" width="47" height="210" as="geometry" />
        </mxCell>
        <mxCell id="rH-XyTWtAwkpwKr8b9kJ-104" value="" style="shape=flexArrow;endArrow=classic;startArrow=classic;html=1;rounded=0;exitX=1;exitY=0.5;exitDx=0;exitDy=0;fillColor=default;" edge="1" parent="1">
          <mxGeometry width="100" height="100" relative="1" as="geometry">
            <mxPoint x="1056" y="1625" as="sourcePoint" />
            <mxPoint x="1130" y="1625" as="targetPoint" />
          </mxGeometry>
        </mxCell>
        <mxCell id="rH-XyTWtAwkpwKr8b9kJ-105" value="Relationship Between Patterns, Reports, and Table Defintions" style="text;html=1;align=center;verticalAlign=middle;whiteSpace=wrap;rounded=0;fontSize=24;" vertex="1" parent="1">
          <mxGeometry x="467.5" y="50" width="730" height="70" as="geometry" />
        </mxCell>
        <mxCell id="rH-XyTWtAwkpwKr8b9kJ-107" value="Architecture for Older Integrations (using MDH as storage)" style="text;html=1;align=center;verticalAlign=middle;whiteSpace=wrap;rounded=0;fontSize=24;" vertex="1" parent="1">
          <mxGeometry x="467.5" y="850" width="730" height="70" as="geometry" />
        </mxCell>
        <mxCell id="rH-XyTWtAwkpwKr8b9kJ-108" value="Architecture for Newer Integrations (using SQL Server as storage)" style="text;html=1;align=center;verticalAlign=middle;whiteSpace=wrap;rounded=0;fontSize=24;" vertex="1" parent="1">
          <mxGeometry x="467.5" y="1390" width="730" height="70" as="geometry" />
        </mxCell>
      </root>
    </mxGraphModel>
  </diagram>
</mxfile>
